<svg width="596" height="365" viewBox="0 0 596 365" fill="none" xmlns="http://www.w3.org/2000/svg">
<path d="M595.955 50.0905C596.182 39.492 595.477 30.7053 593.846 23.7333L593.805 23.7222C594.134 22.8459 594.46 21.9697 594.783 21.0941C595.823 18.2665 595.985 15.1907 595.248 12.2688C593.592 5.71041 590.34 1.78173 585.489 0.481943C582.754 -0.250922 579.511 -0.148292 575.758 0.792065L575.744 0.795456C574.854 1.019 573.957 1.32076 573.057 1.70022L573.014 1.68886C568.922 1.70383 564.902 3.38789 562.002 6.55046C533.465 37.6872 495.629 67.0474 448.494 94.6284C441.391 98.7851 438.979 107.885 443.091 115.014C445.162 118.605 448.497 121.018 452.213 122.014C455.877 122.996 459.91 122.6 463.469 120.594C496.722 101.857 517.1 89.4326 524.603 83.3238L524.561 83.3127C528.408 80.6222 532.648 77.3723 537.281 73.5629L537.324 73.5743C518.244 107.412 493.781 141.386 463.934 175.495L463.59 175.902C424.71 223.661 377.538 261.379 322.073 289.057C321.805 289.191 321.541 289.333 321.281 289.483C246.151 332.787 172.147 344.676 99.2695 325.149C73.5432 318.255 47.9593 307.447 22.514 292.725C21.343 292.047 20.1174 291.546 18.8687 291.211C12.479 289.499 5.49052 292.182 2.01935 298.169C-2.12972 305.324 0.320169 314.486 7.48983 318.635C35.6264 334.914 63.9024 346.861 92.3202 354.476C172.276 375.9 253.351 363.029 335.542 315.86L335.506 315.85C394.665 286.328 445.011 246.117 486.543 195.215L486.533 195.213C518.995 158.116 545.447 121.024 565.89 83.9374L565.933 83.9487C565.56 128.39 563.753 159.367 560.512 176.886C559.08 184.622 563.885 192.073 571.371 194.079C571.753 194.182 572.142 194.269 572.539 194.343C580.685 195.853 588.509 190.484 590.013 182.353C594.362 158.847 596.342 114.759 595.955 50.0905Z" fill="white"></path>
</svg>