<svg width="1803" height="345" viewBox="0 0 1803 345" fill="none" xmlns="http://www.w3.org/2000/svg" xmlns:xlink="http://www.w3.org/1999/xlink">
<rect width="1803" height="345" fill="white"></rect>
<path d="M231.5 291C314.067 291 381 246.005 381 190.5V149.5H82V190.5C82 246.005 148.933 291 231.5 291Z" fill="#20967A"></path>
<path d="M136.5 237.722C113.201 225.477 95.4424 208.689 86.1719 189.34C88.1488 217.368 107.205 242.391 136.5 259.808V237.722Z" fill="#35A98D"></path>
<ellipse cx="231.5" cy="148.5" rx="149.5" ry="100.5" fill="#58B09B"></ellipse>
<path d="M231.5 59C161.084 59 104 97.2797 104 144.5C104 167.648 117.718 188.648 140 204.043L315.5 80.177C293.066 66.9919 263.675 59 231.5 59Z" fill="#69C5AF"></path>
<rect width="68" height="86" transform="translate(198 102)" fill="#FF0000"></rect>
<path d="M564.5 291C647.067 291 714 246.005 714 190.5V149.5H415V190.5C415 246.005 481.933 291 564.5 291Z" fill="#20967A"></path>
<path d="M469.5 237.722C446.201 225.477 428.442 208.689 419.172 189.34C421.149 217.368 440.205 242.391 469.5 259.808V237.722Z" fill="#35A98D"></path>
<ellipse cx="564.5" cy="148.5" rx="149.5" ry="100.5" fill="#58B09B"></ellipse>
<path d="M564.5 59C494.084 59 437 97.2797 437 144.5C437 167.648 450.718 188.648 473 204.043L648.5 80.177C626.066 66.9919 596.675 59 564.5 59Z" fill="#69C5AF"></path>
<rect width="68" height="86" transform="translate(495 102)" fill="#FF0000"></rect>
<rect width="68" height="86" transform="translate(567 102)" fill="#FF0000"></rect>
<path d="M901.5 291C984.067 291 1051 246.005 1051 190.5V149.5H752V190.5C752 246.005 818.933 291 901.5 291Z" fill="#20967A"></path>
<path d="M806.5 237.722C783.201 225.477 765.442 208.689 756.172 189.34C758.149 217.368 777.205 242.391 806.5 259.808V237.722Z" fill="#35A98D"></path>
<ellipse cx="901.5" cy="148.5" rx="149.5" ry="100.5" fill="#58B09B"></ellipse>
<path d="M901.5 59C831.084 59 774 97.2797 774 144.5C774 167.648 787.718 188.648 810 204.043L985.5 80.177C963.066 66.9919 933.675 59 901.5 59Z" fill="#69C5AF"></path>
<ellipse opacity="0.5" cx="901.5" cy="142.5" rx="48.5" ry="32.5" fill="#348370"></ellipse>
<ellipse opacity="0.5" cx="901.5" cy="144.5" rx="128.5" ry="86.5" stroke="white" stroke-width="4"></ellipse>
<rect x="844" y="28" width="116" height="116" fill="url(#pattern0_6026_10407)"></rect>
<rect x="844" y="28" width="116" height="116" fill="#FF0000" fill-opacity="0.3"></rect>
<path d="M1234.5 291C1317.07 291 1384 246.005 1384 190.5V149.5H1085V190.5C1085 246.005 1151.93 291 1234.5 291Z" fill="#CACBDA"></path>
<path d="M1139.5 237.722C1116.2 225.477 1098.44 208.689 1089.17 189.34C1091.15 217.368 1110.21 242.391 1139.5 259.808V237.722Z" fill="#E4E5F6"></path>
<ellipse cx="1234.5" cy="148.5" rx="149.5" ry="100.5" fill="#DEDFEB"></ellipse>
<path d="M1234.5 59C1164.08 59 1107 97.2797 1107 144.5C1107 167.648 1120.72 188.648 1143 204.043L1318.5 80.177C1296.07 66.9919 1266.67 59 1234.5 59Z" fill="#ECEDF7"></path>
<ellipse opacity="0.5" cx="1234.5" cy="142.5" rx="48.5" ry="32.5" fill="#CACBDA"></ellipse>
<rect x="1177" y="28" width="116" height="116" fill="url(#pattern1_6026_10407)" style="mix-blend-mode:luminosity"></rect>
<rect x="1177" y="28" width="116" height="116" fill="#FF0000" fill-opacity="0.3"></rect>
<path d="M1571.5 291C1654.07 291 1721 246.005 1721 190.5V149.5H1422V190.5C1422 246.005 1488.93 291 1571.5 291Z" fill="#CACBDA"></path>
<path d="M1476.5 237.722C1453.2 225.477 1435.44 208.689 1426.17 189.34C1428.15 217.368 1447.21 242.391 1476.5 259.808V237.722Z" fill="#E4E5F6"></path>
<ellipse cx="1571.5" cy="148.5" rx="149.5" ry="100.5" fill="#DEDFEB"></ellipse>
<path d="M1571.5 59C1501.08 59 1444 97.2797 1444 144.5C1444 167.648 1457.72 188.648 1480 204.043L1655.5 80.177C1633.07 66.9919 1603.67 59 1571.5 59Z" fill="#ECEDF7"></path>
<ellipse opacity="0.5" cx="1571.5" cy="142.5" rx="48.5" ry="32.5" fill="#CACBDA"></ellipse>
<rect x="1474" y="19" width="196" height="196" fill="url(#pattern2_6026_10407)"></rect>
<rect x="1474" y="19" width="196" height="196" fill="#FF0000" fill-opacity="0.3"></rect>
<defs>
<pattern id="pattern0_6026_10407" patternContentUnits="objectBoundingBox" width="1" height="1">
<use xlink:href="#image0_6026_10407" transform="scale(0.00104167)"></use>
</pattern>
<pattern id="pattern1_6026_10407" patternContentUnits="objectBoundingBox" width="1" height="1">
<use xlink:href="#image0_6026_10407" transform="scale(0.00104167)"></use>
</pattern>
<pattern id="pattern2_6026_10407" patternContentUnits="objectBoundingBox" width="1" height="1">
<use xlink:href="#image1_6026_10407" transform="translate(-0.281796 -0.23192) scale(0.00124688)"></use>
</pattern>
<image id="image0_6026_10407" width="960" height="960" preserveAspectRatio="none"></image>
<image id="image1_6026_10407" width="1254" height="1254" preserveAspectRatio="none"></image>
</defs>
</svg>