<svg width="70" height="86" viewBox="0 0 70 86" fill="none" xmlns="http://www.w3.org/2000/svg">
<path opacity="0.9" d="M34.726 79.9031C32.0109 79.9031 29.3948 79.7308 26.8996 79.4007C24.4093 79.0712 22.044 78.5851 19.8242 77.9573C17.6126 77.3319 15.5491 76.5669 13.6525 75.6779C11.7659 74.7935 10.0472 73.7877 8.51385 72.676C6.99069 71.5717 5.65234 70.3642 4.51468 69.069C3.38592 67.7839 2.45596 66.4138 1.73937 64.9736C1.02908 63.5461 0.529079 62.0511 0.252777 60.503C-0.0208772 58.9697 -0.0748946 57.3854 0.103207 55.7638C0.239317 54.5245 0.503527 53.3235 0.881702 52.1691C1.2571 51.0231 1.74498 49.9224 2.33178 48.8748C2.91461 47.8343 3.5954 46.8455 4.36109 45.9163C5.12214 44.9926 5.96764 44.127 6.88509 43.327C7.79772 42.5312 8.78229 41.7997 9.82683 41.1399C10.8668 40.483 11.9672 39.8965 13.1165 39.388C14.2619 38.8812 15.457 38.4512 16.6909 38.1057C17.9219 37.761 19.1928 37.4999 20.493 37.3301L20.5162 36.8461C19.4011 36.665 18.3354 36.4081 17.3261 36.0825C16.319 35.7577 15.3689 35.365 14.4826 34.9116C13.5989 34.4596 12.7794 33.9476 12.0301 33.3832C11.2837 32.821 10.6077 32.207 10.008 31.5486C9.41092 30.8932 8.88987 30.1941 8.45046 29.4587C8.01327 28.727 7.65712 27.9597 7.3874 27.1637C7.11917 26.3722 6.93653 25.5527 6.84462 24.7121C6.75324 23.8764 6.75157 23.0202 6.84454 22.15C6.95877 20.9277 7.25194 19.7562 7.7065 18.6431C8.15745 17.5389 8.76758 16.4912 9.52019 15.5075C10.2674 14.5308 11.1558 13.6163 12.1694 12.7713C13.1768 11.9314 14.3088 11.1593 15.5505 10.462C16.7858 9.76829 18.131 9.14794 19.5718 8.60805C21.0067 8.07032 22.5382 7.61179 24.1528 7.23967C25.7628 6.86858 27.4575 6.58296 29.224 6.39022C30.988 6.19776 32.826 6.09766 34.726 6.09766C36.6261 6.09766 38.4641 6.19776 40.2283 6.39022C41.995 6.58296 43.6901 6.86858 45.3009 7.23967C46.9163 7.61179 48.449 8.07032 49.8858 8.60805C51.3284 9.14794 52.676 9.76829 53.9146 10.462C55.1596 11.1593 56.2958 11.9314 57.3084 12.7713C58.3272 13.6163 59.2219 14.5308 59.9768 15.5075C60.737 16.4912 61.3562 17.5389 61.8176 18.6431C62.2828 19.7562 62.5882 20.9277 62.7165 22.15C62.7961 23.0202 62.7802 23.8764 62.6746 24.7121C62.5683 25.5527 62.3713 26.3722 62.0898 27.1637C61.8067 27.9597 61.4382 28.727 60.9906 29.4587C60.5408 30.1941 60.0113 30.8932 59.409 31.5486C58.8039 32.207 58.1255 32.821 57.381 33.3832C56.6335 33.9476 55.8199 34.4596 54.9473 34.9116C54.072 35.365 53.1383 35.7577 52.1536 36.0825C51.1667 36.4081 50.1297 36.665 49.0505 36.8461L49.0739 37.3301C50.3454 37.4999 51.5931 37.761 52.8053 38.1057C54.0203 38.4512 55.201 38.8812 56.3356 39.388C57.4741 39.8965 58.5672 40.483 59.6026 41.1399C60.6425 41.7997 61.6252 42.5312 62.5377 43.327C63.4551 44.127 64.3024 44.9926 65.0661 45.9163C65.8345 46.8455 66.5189 47.8343 67.1054 48.8748C67.6959 49.9224 68.1875 51.0231 68.5657 52.1691C68.9467 53.3235 69.2128 54.5245 69.3489 55.7638C69.527 57.3854 69.472 58.9697 69.1968 60.503C68.9189 62.0511 68.4167 63.5461 67.7039 64.9736C66.9848 66.4138 66.0521 67.7839 64.9207 69.069C63.7803 70.3642 62.4394 71.5717 60.9142 72.676C59.3787 73.7877 57.6585 74.7935 55.7711 75.6779C53.8738 76.5669 51.8105 77.3319 49.6003 77.9573C47.382 78.5851 45.0195 79.0712 42.5336 79.4007C40.0429 79.7308 37.433 79.9031 34.726 79.9031ZM19.3235 54.1316C19.2745 54.9728 19.325 55.7868 19.4697 56.5679C19.6152 57.3528 19.8557 58.104 20.1859 58.8154C20.5175 59.53 20.9395 60.2042 21.4462 60.8316C21.9548 61.4615 22.5485 62.044 23.2212 62.5729C23.8962 63.1035 24.6503 63.5798 25.4773 63.9955C26.3065 64.4123 27.2083 64.7678 28.1763 65.056C29.1459 65.3447 30.1811 65.5655 31.275 65.7124C32.37 65.8595 33.5227 65.9323 34.726 65.925C35.9294 65.9323 37.0821 65.8595 38.177 65.7124C39.271 65.5655 40.3062 65.3447 41.2758 65.056C42.2438 64.7678 43.1456 64.4123 43.9748 63.9955C44.8018 63.5798 45.5559 63.1035 46.2309 62.5729C46.9036 62.044 47.4973 61.4615 48.0059 60.8316C48.5126 60.2042 48.9346 59.53 49.2662 58.8154C49.5964 58.104 49.8369 57.3528 49.9824 56.5679C50.1271 55.7868 50.1775 54.9728 50.1286 54.1316C50.0948 53.2882 49.9597 52.4769 49.7327 51.7033C49.5069 50.9336 49.1899 50.2009 48.7908 49.5105C48.3934 48.8233 47.9144 48.1778 47.3626 47.5793C46.8128 46.9832 46.1904 46.4334 45.5036 45.9353C44.8191 45.4388 44.0703 44.9934 43.2653 44.6043C42.4623 44.2162 41.6028 43.8839 40.6947 43.6127C39.7882 43.342 38.8325 43.132 37.8351 42.9882C36.8387 42.8445 35.7999 42.7667 34.726 42.7604C33.6522 42.7667 32.6134 42.8437 31.617 42.9861C30.6197 43.1287 29.664 43.3369 28.7575 43.6056C27.8495 43.8748 26.9901 44.2049 26.1872 44.5909C25.3823 44.9779 24.6335 45.4213 23.9491 45.9161C23.2625 46.4125 22.6402 46.961 22.0905 47.5565C21.5386 48.1544 21.0597 48.8 20.6623 49.4884C20.2632 50.1798 19.9461 50.9148 19.7201 51.688C19.493 52.4652 19.3577 53.2815 19.3235 54.1316ZM22.7992 23.4655C22.7653 24.1058 22.8114 24.7246 22.932 25.3179C23.0532 25.9136 23.2495 26.4832 23.5157 27.0225C23.7829 27.5638 24.1203 28.0743 24.5223 28.5496C24.9256 29.0264 25.3938 29.4676 25.9211 29.8687C26.4499 30.271 27.0378 30.6328 27.6788 30.9496C28.3213 31.2672 29.0167 31.5395 29.7589 31.7621C30.5023 31.9851 31.2921 32.1581 32.1221 32.2769C32.9527 32.3958 33.8229 32.4603 34.726 32.4662C35.6222 32.4603 36.4871 32.3958 37.314 32.2769C38.1404 32.1581 38.9282 31.9851 39.6712 31.7621C40.413 31.5395 41.1095 31.2672 41.7545 30.9496C42.3981 30.6328 42.9899 30.271 43.524 29.8687C44.0565 29.4676 44.5313 29.0264 44.9423 28.5496C45.352 28.0743 45.6983 27.5638 45.9753 27.0225C46.2514 26.4832 46.4586 25.9136 46.5916 25.3179C46.724 24.7246 46.7827 24.1058 46.7623 23.4655C46.7291 22.8446 46.6212 22.2496 46.4447 21.684C46.2688 21.1207 46.0247 20.5864 45.7181 20.0845C45.4126 19.5844 45.045 19.1163 44.6207 18.6835C44.1978 18.2522 43.7184 17.8558 43.188 17.4978C42.6589 17.1407 42.0788 16.8217 41.4528 16.544C40.8281 16.2669 40.1574 16.031 39.4457 15.8395C38.7351 15.6484 37.9832 15.5015 37.1949 15.4025C36.4072 15.3035 35.5826 15.2522 34.726 15.2522C33.8628 15.2522 33.0333 15.3035 32.2422 15.4025C31.4505 15.5015 30.6966 15.6484 29.9856 15.8395C29.2735 16.031 28.6038 16.2669 27.9815 16.544C27.3579 16.8217 26.7815 17.1407 26.2574 17.4978C25.732 17.8558 25.2589 18.2522 24.8434 18.6835C24.4267 19.1163 24.0677 19.5844 23.772 20.0845C23.4752 20.5864 23.242 21.1207 23.078 21.684C22.9134 22.2496 22.8185 22.8446 22.7992 23.4655Z" fill="white"></path>
</svg>