<svg width="68" height="86" viewBox="0 0 68 86" fill="none" xmlns="http://www.w3.org/2000/svg">
<path opacity="0.9" d="M33.9997 79.9031C31.0221 79.9031 28.1966 79.6359 25.5391 79.1109C22.8898 78.5875 20.4154 77.8095 18.1295 76.7884C15.8574 75.7735 13.778 74.5214 11.9027 73.0452C10.0439 71.582 8.39052 69.9027 6.95165 68.0216C5.52912 66.1619 4.3198 64.1097 3.33046 61.8799C2.35466 59.6806 1.59514 57.3137 1.05669 54.7943C0.526744 52.3147 0.21207 49.6925 0.11578 46.9426C0.0211871 44.2412 0.137529 41.4217 0.466529 38.4982C0.788524 35.6369 1.28296 32.9786 1.9364 30.52C2.57894 28.1024 3.37675 25.8721 4.31817 23.8274C5.24619 21.8118 6.31593 19.9718 7.51726 18.3068C8.70436 16.6616 10.0227 15.1835 11.4634 13.8729C12.8905 12.5749 14.441 11.4382 16.1072 10.4646C17.7616 9.49788 19.5339 8.68957 21.4177 8.04217C23.2924 7.39788 25.282 6.91144 27.3809 6.58638C29.4747 6.26211 31.6825 6.09766 33.9997 6.09766C36.317 6.09766 38.5247 6.26211 40.6186 6.58638C42.7175 6.91144 44.7071 7.39788 46.5818 8.04217C48.4656 8.68957 50.2379 9.49788 51.8922 10.4646C53.5585 11.4382 55.109 12.5749 56.536 13.8729C57.9768 15.1835 59.2951 16.6616 60.4822 18.3068C61.6835 19.9718 62.7533 21.8118 63.6813 23.8274C64.6227 25.8721 65.4205 28.1024 66.0631 30.52C66.7165 32.9786 67.2109 35.6369 67.5329 38.4982C67.8633 41.4341 67.9798 44.2634 67.8845 46.9723C67.7875 49.7299 67.4712 52.3573 66.939 54.8402C66.3983 57.3629 65.6361 59.731 64.6574 61.9299C63.6651 64.1592 62.4528 66.2093 61.0277 68.0659C59.5863 69.9438 57.9308 71.6188 56.0706 73.0773C54.1941 74.5487 52.1144 75.7957 49.8433 76.8059C47.5586 77.8222 45.0867 78.5959 42.4417 79.1161C39.7885 79.6379 36.9692 79.9031 33.9997 79.9031ZM18.2126 38.4982C18.0893 40.5522 18.0718 42.4999 18.1564 44.3374C18.242 46.1974 18.4321 47.9415 18.7224 49.5664C19.0157 51.2085 19.4109 52.7261 19.9028 54.1162C20.3991 55.5187 20.993 56.7891 21.679 57.925C22.3699 59.0691 23.1528 60.0748 24.0216 60.9405C24.895 61.8109 25.8536 62.5381 26.8905 63.1214C27.9312 63.7068 29.0489 64.1462 30.2361 64.4393C31.4255 64.733 32.6826 64.8795 33.9997 64.8795C35.3168 64.8795 36.573 64.733 37.7608 64.4393C38.9465 64.1462 40.0619 63.7068 41.1001 63.1214C42.1346 62.5381 43.0906 61.8109 43.9616 60.9405C44.8278 60.0748 45.6084 59.0691 46.2975 57.925C46.9816 56.7891 47.5742 55.5187 48.07 54.1162C48.5615 52.7261 48.957 51.2085 49.2519 49.5664C49.5437 47.9415 49.7365 46.1974 49.8262 44.3374C49.9149 42.4999 49.9029 40.5522 49.7868 38.4982C49.6876 36.4901 49.4993 34.6316 49.229 32.9176C48.9618 31.2234 48.614 29.6673 48.1918 28.2452C47.7737 26.837 47.282 25.5577 46.7224 24.4041C46.1674 23.2598 45.5446 22.2373 44.8594 21.334C44.1786 20.4364 43.435 19.655 42.6336 18.988C41.836 18.3242 40.9799 17.7725 40.0697 17.3317C39.1625 16.8923 38.2001 16.5623 37.187 16.341C36.1755 16.1201 35.1117 16.0071 33.9997 16.0019C32.8878 16.0071 31.8248 16.1201 30.8147 16.341C29.8029 16.5623 28.8424 16.8923 27.9373 17.3317C27.0292 17.7725 26.1754 18.3242 25.3801 18.988C24.5809 19.655 23.8395 20.4364 23.1604 21.334C22.477 22.2373 21.8556 23.2598 21.3011 24.4041C20.7422 25.5577 20.2504 26.837 19.8312 28.2452C19.4078 29.6673 19.0576 31.2234 18.7867 32.9176C18.5126 34.6316 18.319 36.4901 18.2126 38.4982Z" fill="white"></path>
</svg>