<svg width="299" height="243" viewBox="0 0 299 243" fill="none" xmlns="http://www.w3.org/2000/svg">
<path d="M149.5 243C232.067 243 299 198.005 299 142.5V101.5H0V142.5C0 198.005 66.9334 243 149.5 243Z" fill="#20967A"></path>
<path d="M54.5 189.722C31.2014 177.477 13.4424 160.689 4.17188 141.34C6.14884 169.368 25.2052 194.391 54.5 211.808V189.722Z" fill="#35A98D"></path>
<ellipse cx="149.5" cy="100.5" rx="149.5" ry="100.5" fill="#58B09B"></ellipse>
<path d="M149.5 11C79.0837 11 22 49.2797 22 96.5C22 119.648 35.7181 140.648 58 156.043L233.5 32.177C211.066 18.9919 181.675 11 149.5 11Z" fill="#69C5AF"></path>
<ellipse opacity="0.5" cx="149.5" cy="96.5" rx="128.5" ry="86.5" stroke="white" stroke-width="4"></ellipse>
<path opacity="0.5" d="M109.884 48.7166C111.078 33.0792 124.114 21 139.797 21L158.203 21C173.886 21 186.922 33.0792 188.116 48.7166L193.536 119.717C194.865 137.134 181.091 152 163.623 152H134.377C116.909 152 103.135 137.134 104.464 119.717L109.884 48.7166Z" fill="#348370"></path>
</svg>