<svg width="68" height="86" viewBox="0 0 68 86" fill="none" xmlns="http://www.w3.org/2000/svg">
<path opacity="0.9" d="M34.699 79.9031C32.2464 79.8952 29.8091 79.7111 27.4264 79.33C25.0491 78.9498 22.7316 78.3744 20.5133 77.5847C18.3055 76.7986 16.2015 75.8023 14.2403 74.5786C12.2934 73.3638 10.4926 71.9283 8.87523 70.2576C7.2741 68.6037 5.85743 66.7241 4.66048 64.6073C3.47896 62.5178 2.51509 60.2035 1.80114 57.6558C1.09848 55.1484 0.640068 52.4227 0.454621 49.4733C0.272649 46.5791 0.354078 43.4785 0.72362 40.1688C1.05804 37.1787 1.5756 34.396 2.25977 31.8191C2.93204 29.287 3.76679 26.9473 4.74955 24.7997C5.71768 22.684 6.83175 20.7495 8.07904 18.9969C9.31083 17.2661 10.6755 15.7086 12.1618 14.326C13.6333 12.9573 15.2275 11.7567 16.9347 10.727C18.6289 9.70519 20.4385 8.8492 22.3548 8.16284C24.2614 7.47997 26.2783 6.96332 28.3981 6.61773C30.5125 6.27304 32.7346 6.09766 35.0583 6.09766C36.9263 6.09766 38.7234 6.20929 40.4435 6.42297C42.1665 6.63699 43.8149 6.9537 45.3819 7.3639C46.9537 7.77536 48.4458 8.28146 49.8506 8.87319C51.2616 9.46755 52.5863 10.1491 53.8164 10.9088C55.0535 11.6729 56.1962 12.517 57.2356 13.4321C58.282 14.3534 59.2246 15.3477 60.0538 16.4058C60.8893 17.4721 61.6103 18.6041 62.2062 19.7926C62.8073 20.9913 63.2816 22.2482 63.6179 23.5537H47.4186C47.2274 22.9982 46.988 22.4709 46.7033 21.9735C46.4196 21.4779 46.0908 21.0119 45.7197 20.5773C45.3498 20.144 44.9378 19.7417 44.4864 19.3722C44.0362 19.0037 43.5466 18.6677 43.0203 18.366C42.4951 18.0649 41.9332 17.7979 41.337 17.5668C40.7418 17.3361 40.1122 17.1411 39.4507 16.9836C38.7899 16.8263 38.0969 16.7063 37.3741 16.6258C36.6517 16.5453 35.8992 16.504 35.1187 16.504C33.8046 16.504 32.5685 16.62 31.4097 16.8465C30.2489 17.0735 29.1639 17.4117 28.1544 17.8565C27.1416 18.3026 26.2032 18.8566 25.3395 19.5138C24.4718 20.1742 23.6782 20.9399 22.9594 21.8067C22.2361 22.6788 21.5876 23.6546 21.015 24.7301C20.438 25.8138 19.9372 27.0003 19.5141 28.2858C19.0873 29.5829 18.739 30.9825 18.4712 32.4813C18.2006 33.9956 18.0119 35.613 17.9073 37.3301H18.7108C19.2291 36.5504 19.8106 35.8153 20.4484 35.1261C21.0832 34.4401 21.7742 33.7991 22.5147 33.2046C23.2523 32.6125 24.0393 32.066 24.8695 31.5667C25.6968 31.0691 26.5675 30.6179 27.4751 30.2147C28.3802 29.8126 29.3228 29.4579 30.2966 29.1522C31.2684 28.8471 32.2719 28.5905 33.3012 28.3841C34.3291 28.1779 35.3833 28.0217 36.4582 27.917C37.5322 27.8123 38.6275 27.7591 39.7383 27.7591C41.5503 27.7591 43.3089 27.8975 45.0022 28.1643C46.6987 28.4316 48.3327 28.8283 49.8915 29.3449C51.456 29.8633 52.9474 30.5035 54.3523 31.2562C55.7645 32.0129 57.0915 32.8845 58.319 33.8624C59.5546 34.8468 60.6912 35.9402 61.7133 37.1339C62.7436 38.3374 63.659 39.6443 64.4431 41.0461C65.2346 42.4611 65.8932 43.9743 66.4015 45.5769C66.9152 47.1965 67.276 48.9091 67.4651 50.7055C67.687 52.6636 67.6923 54.5762 67.4898 56.4273C67.2849 58.3003 66.8673 60.1086 66.2466 61.8353C65.6191 63.5807 64.7848 65.2406 63.7545 66.7974C62.7143 68.3692 61.4757 69.8337 60.0509 71.1726C58.6145 72.5224 56.9912 73.7424 55.195 74.8141C53.3871 75.8927 51.4073 76.8191 49.2714 77.5749C47.1258 78.3342 44.827 78.9198 42.3925 79.314C39.9524 79.7091 37.3815 79.911 34.699 79.9031ZM18.9834 51.1297C18.9542 52.0749 19.0259 53.005 19.192 53.9097C19.3591 54.8196 19.6216 55.7035 19.9728 56.551C20.326 57.4031 20.7686 58.2179 21.2937 58.9846C21.8214 59.7551 22.432 60.4766 23.1182 61.1381C23.8071 61.8024 24.5718 62.4058 25.4042 62.9371C26.2394 63.4701 27.1422 63.9302 28.1042 64.3061C29.0685 64.6829 30.0913 64.9748 31.164 65.1707C32.238 65.3669 33.3607 65.4668 34.5231 65.4595C35.6934 65.4668 36.8233 65.3706 37.9037 65.1802C38.9828 64.9901 40.0111 64.7064 40.9796 64.3385C41.9459 63.9715 42.8518 63.5212 43.6885 62.9974C44.5226 62.4753 45.2872 61.8806 45.9743 61.223C46.6586 60.5682 47.2655 59.8515 47.7871 59.0828C48.3062 58.3177 48.7406 57.5015 49.0829 56.6438C49.4234 55.7907 49.6725 54.8969 49.8232 53.9717C49.9731 53.052 50.0256 52.1016 49.9741 51.1297C49.9233 50.1703 49.7744 49.244 49.5365 48.3579C49.3 47.477 48.9753 46.6355 48.5713 45.8407C48.1693 45.05 47.6886 44.3051 47.1374 43.6129C46.5888 42.9239 45.97 42.2868 45.2891 41.7084C44.6109 41.1323 43.8705 40.6142 43.0757 40.1609C42.2834 39.709 41.4363 39.3212 40.5419 39.0045C39.6494 38.6884 38.7089 38.4428 37.7275 38.2748C36.7473 38.107 35.7253 38.0164 34.6682 38.0104C33.6041 38.0164 32.5719 38.1101 31.5793 38.2828C30.5856 38.4558 29.6304 38.7083 28.7216 39.032C27.8108 39.3565 26.9457 39.7529 26.1345 40.213C25.3208 40.6746 24.5606 41.2007 23.8624 41.7833C23.1616 42.3682 22.5226 43.0104 21.9546 43.7018C21.3839 44.3963 20.8843 45.1409 20.4651 45.9273C20.0437 46.7177 19.7032 47.5507 19.4533 48.4178C19.2019 49.2899 19.042 50.1967 18.9834 51.1297Z" fill="white"></path>
</svg>