<svg width="68" height="86" viewBox="0 0 68 86" fill="none" xmlns="http://www.w3.org/2000/svg">
<path opacity="0.9" d="M33.3934 6.09779C35.3192 6.10264 37.2333 6.2155 39.1115 6.44948C40.993 6.68387 42.8419 7.04024 44.634 7.53252C46.4328 8.02662 48.178 8.65864 49.8456 9.44367C51.523 10.2333 53.1256 11.1796 54.6288 12.2991C56.1446 13.4279 57.5631 14.7358 58.8591 16.2415C60.1694 17.7639 61.358 19.4928 62.3982 21.4501C63.4531 23.435 64.3586 25.6611 65.0857 28.1542C65.8257 30.6912 66.3836 33.5137 66.7272 36.6531C67.0625 39.6511 67.1738 42.5518 67.0653 45.3391C66.9547 48.1784 66.6162 50.8944 66.0555 53.4702C65.4854 56.089 64.6869 58.5571 63.6675 60.8566C62.6333 63.1896 61.3743 65.3436 59.9004 67.3004C58.4086 69.2809 56.7006 71.0544 54.7887 72.6032C52.8588 74.1666 50.7267 75.4966 48.4073 76.5768C46.0729 77.6641 43.556 78.4949 40.8741 79.0547C38.1832 79.6163 35.3349 79.9033 32.3491 79.9033C29.962 79.9033 27.6718 79.7222 25.4919 79.3754C23.3163 79.0293 21.2548 78.519 19.3193 77.8606C17.3914 77.2048 15.5918 76.4033 13.9314 75.4728C12.2802 74.5475 10.7692 73.496 9.40767 72.335C8.05564 71.1822 6.85291 69.923 5.80775 68.5739C4.77111 67.2359 3.89065 65.811 3.17359 64.3153C2.4631 62.8333 1.9137 61.2831 1.53178 59.6803C1.15366 58.0933 0.93998 56.4559 0.896484 54.7826H18.8832C19.0378 55.5112 19.2502 56.2055 19.5178 56.8629C19.7866 57.5231 20.1109 58.1458 20.4882 58.7285C20.8668 59.3134 21.2985 59.8576 21.7804 60.3588C22.2639 60.8615 22.7976 61.3205 23.3787 61.7334C23.9612 62.1474 24.5909 62.5147 25.2648 62.833C25.94 63.1518 26.6591 63.4212 27.4188 63.6388C28.1795 63.8566 28.9805 64.0224 29.8184 64.1336C30.6569 64.245 31.5318 64.3018 32.4396 64.3018C33.9813 64.3018 35.4314 64.1423 36.7869 63.8311C38.1398 63.5206 39.3958 63.0594 40.5525 62.4563C41.7049 61.8555 42.7567 61.1147 43.7062 60.2431C44.6506 59.3763 45.4923 58.3815 46.2302 57.2682C46.963 56.1627 47.5924 54.9419 48.1179 53.6156C48.639 52.3004 49.0573 50.8833 49.3728 49.3737C49.6853 47.8787 49.8967 46.295 50.0074 44.632C50.117 42.987 50.128 41.2662 50.0412 39.4788H49.3475C48.8946 40.2678 48.3692 41.0207 47.7775 41.7344C47.1829 42.4514 46.5218 43.1287 45.8002 43.763C45.0756 44.4001 44.2906 44.9936 43.4516 45.5406C42.6095 46.0896 41.7137 46.5914 40.7707 47.0431C39.825 47.4962 38.8325 47.8986 37.8002 48.2475C36.7655 48.5973 35.6915 48.893 34.5854 49.1319C33.4775 49.3712 32.3382 49.5534 31.1746 49.6758C30.0101 49.7983 28.8223 49.8608 27.6186 49.8608C25.6746 49.8608 23.7997 49.6997 22.0103 49.3903C20.2246 49.0816 18.5275 48.6258 16.9346 48.0368C15.3477 47.45 13.867 46.732 12.5068 45.8968C11.154 45.0661 9.92243 44.1208 8.82545 43.0751C7.73599 42.0366 6.78071 40.9004 5.97175 39.6805C5.16934 38.4705 4.51183 37.1796 4.01038 35.8215C3.51349 34.4757 3.17032 33.0652 2.99114 31.6032C2.81374 30.1557 2.79723 28.6588 2.95116 27.125C3.13009 25.4901 3.49025 23.9283 4.01541 22.449C4.53511 20.985 5.21694 19.6003 6.04578 18.3037C6.86696 17.0192 7.83338 15.8198 8.93103 14.7143C10.0199 13.6176 11.2393 12.6119 12.5763 11.7059C13.9044 10.8059 15.3503 10.003 16.9022 9.30593C18.4461 8.61244 20.0972 8.02262 21.8446 7.54539C23.5858 7.06986 25.4254 6.70534 27.3536 6.46111C29.2782 6.21732 31.2945 6.09294 33.3934 6.09779ZM19.2631 26.7639C19.2206 27.5721 19.2703 28.3621 19.4068 29.1265C19.544 29.895 19.7689 30.6373 20.0756 31.3457C20.3838 32.0576 20.7745 32.735 21.2418 33.3701C21.7111 34.008 22.2573 34.6028 22.8741 35.1467C23.4932 35.6925 24.183 36.1867 24.9369 36.6211C25.693 37.0569 26.513 37.4322 27.3899 37.7391C28.2686 38.0467 29.2036 38.2853 30.1877 38.4471C31.1729 38.6091 32.2062 38.6939 33.28 38.6939C34.3394 38.6939 35.3679 38.6045 36.3557 38.4349C37.3423 38.2655 38.2874 38.0162 39.1814 37.6966C40.0735 37.3776 40.914 36.9888 41.6938 36.5397C42.4713 36.092 43.1879 35.5847 43.8349 35.0273C44.4795 34.472 45.0546 33.8673 45.552 33.2227C46.0472 32.5809 46.4651 31.8998 46.7977 31.1887C47.1286 30.481 47.375 29.7439 47.5292 28.9862C47.6825 28.2325 47.7446 27.4588 47.7078 26.6737C47.6578 25.8985 47.5175 25.1421 47.2952 24.4125C47.074 23.6866 46.7715 22.987 46.3957 22.3214C46.0216 21.6589 45.5746 21.0298 45.0624 20.4417C44.5523 19.856 43.9772 19.3106 43.3445 18.8129C42.7141 18.317 42.026 17.8682 41.2873 17.4738C40.5506 17.0805 39.7631 16.7411 38.9314 16.4629C38.1014 16.1852 37.2267 15.9683 36.3138 15.8196C35.4018 15.671 34.4507 15.5903 33.4668 15.5851C32.4828 15.5903 31.5296 15.6684 30.6143 15.8129C29.698 15.9575 28.8188 16.1689 27.9839 16.4406C27.1474 16.7129 26.3546 17.046 25.6133 17.4337C24.8699 17.8225 24.1776 18.2666 23.5442 18.7596C22.9086 19.2545 22.332 19.799 21.8225 20.3869C21.3108 20.9774 20.8665 21.612 20.4981 22.2845C20.1279 22.9603 19.834 23.6746 19.6254 24.421C19.4156 25.1714 19.2918 25.9545 19.2631 26.7639Z" fill="white"></path>
</svg>