<svg width="299" height="243" viewBox="0 0 299 243" fill="none" xmlns="http://www.w3.org/2000/svg">
<path d="M149.5 243C232.067 243 299 198.005 299 142.5V101.5H0V142.5C0 198.005 66.9334 243 149.5 243Z" fill="#CACBDA"></path>
<path d="M54.5 189.722C31.2014 177.477 13.4424 160.689 4.17188 141.34C6.14884 169.368 25.2052 194.391 54.5 211.808V189.722Z" fill="#E4E5F6"></path>
<ellipse cx="149.5" cy="100.5" rx="149.5" ry="100.5" fill="#DEDFEB"></ellipse>
<path d="M149.5 11C79.0837 11 22 49.2797 22 96.5C22 119.648 35.7181 140.648 58 156.043L233.5 32.177C211.066 18.9919 181.675 11 149.5 11Z" fill="#ECEDF7"></path>
</svg>