<svg width="68" height="86" viewBox="0 0 68 86" fill="none" xmlns="http://www.w3.org/2000/svg">
<path opacity="0.9" d="M33.7022 79.9031C31.0937 79.9031 28.5802 79.7298 26.1821 79.3959C23.7887 79.0626 21.5146 78.5698 19.3791 77.9309C17.2516 77.2943 15.2651 76.5137 13.4374 75.6029C11.6195 74.697 9.96141 73.6636 8.47929 72.5167C7.00734 71.3776 5.711 70.1282 4.60503 68.7821C3.50805 67.4469 2.5997 66.0184 1.89345 64.5099C1.19372 63.0154 0.693102 61.444 0.403934 59.8089C0.117698 58.1903 0.0388966 56.5107 0.178873 54.7824H18.6517C18.654 55.5179 18.7531 56.225 18.9422 56.9C19.1322 57.5778 19.4127 58.2229 19.7768 58.8311C20.1422 59.4417 20.5916 60.0149 21.1174 60.5467C21.645 61.0803 22.2493 61.5718 22.9227 62.0174C23.598 62.4641 24.3423 62.8643 25.1477 63.214C25.9549 63.5643 26.8231 63.8636 27.744 64.1079C28.6663 64.3525 29.6409 64.5418 30.6596 64.6717C31.679 64.8017 32.7418 64.8723 33.8393 64.8795C34.9682 64.8723 36.0564 64.7936 37.0956 64.6483C38.1339 64.5032 39.1223 64.2917 40.0528 64.0188C40.9817 63.7463 41.8523 63.413 42.6565 63.0237C43.4587 62.6353 44.1945 62.1917 44.8561 61.6977C45.5157 61.2053 46.1011 60.6633 46.6052 60.0768C47.1074 59.4924 47.5285 58.8642 47.8615 58.1973C48.193 57.5331 48.437 56.8308 48.5865 56.0954C48.7353 55.3635 48.7906 54.5991 48.7456 53.8072C48.7157 53.0125 48.5874 52.2511 48.3666 51.5274C48.1468 50.8071 47.8352 50.1238 47.4373 49.4818C47.041 48.8425 46.5589 48.2439 45.9962 47.6903C45.4356 47.1387 44.7946 46.6315 44.0784 46.1729C43.3644 45.7157 42.575 45.3066 41.7152 44.9499C40.8574 44.594 39.9289 44.29 38.9341 44.0422C37.9409 43.7949 36.881 43.6034 35.7586 43.4723C34.6372 43.3412 33.4525 43.2703 32.2086 43.264H24.3644L24.7068 32.4662H32.2712C33.2803 32.4662 34.2513 32.409 35.1775 32.2986C36.103 32.1883 36.9829 32.0249 37.8106 31.8125C38.6371 31.6003 39.411 31.3394 40.1257 31.0337C40.8388 30.7287 41.4926 30.3793 42.0807 29.9897C42.6672 29.6012 43.188 29.1728 43.637 28.7088C44.0846 28.2463 44.4607 27.7485 44.7592 27.2195C45.0567 26.6926 45.2771 26.1349 45.4148 25.5506C45.5519 24.9686 45.6069 24.3605 45.5742 23.7301C45.556 23.119 45.4655 22.5345 45.308 21.9798C45.1511 21.4272 44.9276 20.9041 44.6425 20.4135C44.3584 19.9246 44.0129 19.4679 43.611 19.0465C43.2102 18.6264 42.7531 18.2412 42.2444 17.8942C41.7369 17.5479 41.1777 17.2395 40.5713 16.9719C39.9661 16.7049 39.3136 16.4785 38.6181 16.2959C37.9235 16.1136 37.1856 15.9748 36.4087 15.8831C35.6322 15.7913 34.8162 15.7464 33.9647 15.7516C33.1133 15.7464 32.2806 15.7887 31.4745 15.8759C30.6678 15.9631 29.8872 16.0953 29.1402 16.2697C28.3923 16.4444 27.6777 16.6616 27.0043 16.9187C26.3297 17.1763 25.696 17.4741 25.1113 17.8095C24.5251 18.1458 23.9879 18.5201 23.5077 18.9298C23.0261 19.3408 22.6017 19.7878 22.2428 20.2681C21.8827 20.75 21.5884 21.2658 21.3685 21.813C21.1477 22.3622 21.0018 22.9433 20.9396 23.5537H5.17809C5.35101 22.1882 5.70257 20.8872 6.21429 19.6571C6.72154 18.4378 7.38663 17.2872 8.19209 16.2116C8.99131 15.1442 9.92954 14.1497 10.9902 13.2341C12.0439 12.3247 13.2195 11.4922 14.5015 10.743C15.7764 9.99788 17.158 9.33421 18.6315 8.7583C20.0987 8.18486 21.6588 7.69769 23.2979 7.3033C24.9321 6.91007 26.6471 6.60852 28.4294 6.40541C30.2089 6.20262 32.0583 6.09766 33.9647 6.09766C35.9033 6.09766 37.7623 6.20626 39.5337 6.41392C41.3079 6.62192 42.9968 6.92959 44.5915 7.32778C46.1909 7.72716 47.6977 8.21813 49.1021 8.79172C50.5125 9.36777 51.8213 10.0279 53.018 10.7631C54.2212 11.5023 55.3123 12.3183 56.28 13.2021C57.2541 14.0917 58.104 15.0509 58.8176 16.0705C59.5365 17.0976 60.1177 18.187 60.5483 19.3292C60.9823 20.4809 61.2635 21.687 61.3782 22.9378C61.4716 23.8295 61.4645 24.6941 61.3627 25.5278C61.2604 26.3664 61.0622 27.1733 60.7743 27.9444C60.4848 28.7197 60.1048 29.4584 59.6404 30.1565C59.1737 30.858 58.6222 31.518 57.9923 32.1324C57.3598 32.7493 56.6487 33.3199 55.8658 33.8399C55.0802 34.3617 54.2228 34.8322 53.3008 35.2473C52.3762 35.6635 51.3874 36.0237 50.3417 36.3237C49.2938 36.6243 48.1898 36.8642 47.0372 37.0395L47.0628 37.6212C48.6001 37.7792 50.0571 38.0157 51.4317 38.3262C52.8092 38.6374 54.1054 39.0232 55.3181 39.4794C56.5344 39.937 57.6679 40.4658 58.7157 41.0615C59.7677 41.6597 60.7343 42.3259 61.6126 43.0561C62.4951 43.7897 63.2891 44.5886 63.9913 45.4485C64.6974 46.3133 65.3111 47.2406 65.8288 48.2262C66.3498 49.2182 66.7739 50.2699 67.097 51.3774C67.4225 52.4928 67.6457 53.6655 67.7623 54.8912C67.9598 56.5862 67.9254 58.2389 67.6718 59.8357C67.4155 61.4487 66.9357 63.0033 66.246 64.4856C65.5499 65.9815 64.6407 67.4021 63.5331 68.7328C62.4165 70.0744 61.0996 71.3231 59.5986 72.4636C58.0871 73.6121 56.3911 74.6495 54.5281 75.5606C52.6549 76.4766 50.6159 77.2636 48.4301 77.9064C46.236 78.5516 43.8978 79.0505 41.4364 79.3884C38.97 79.7269 36.3846 79.9031 33.7022 79.9031Z" fill="white"></path>
</svg>