<svg width="299" height="243" viewBox="0 0 299 243" fill="none" xmlns="http://www.w3.org/2000/svg">
<path d="M149.5 243C232.067 243 299 198.005 299 142.5V101.5H0V142.5C0 198.005 66.9334 243 149.5 243Z" fill="#20967A"></path>
<path d="M54.5 189.722C31.2014 177.477 13.4424 160.689 4.17188 141.34C6.14884 169.368 25.2052 194.391 54.5 211.808V189.722Z" fill="#35A98D"></path>
<ellipse cx="149.5" cy="100.5" rx="149.5" ry="100.5" fill="#58B09B"></ellipse>
<path d="M149.5 11C79.0837 11 22 49.2797 22 96.5C22 119.648 35.7181 140.648 58 156.043L233.5 32.177C211.066 18.9919 181.675 11 149.5 11Z" fill="#69C5AF"></path>
<path d="M113.678 126.77H95L102.156 72.6761C102.395 70.9641 102.765 69.3883 103.265 67.9418C103.762 66.5069 104.386 65.1972 105.139 64.0066C105.887 62.824 106.761 61.7573 107.763 60.801C108.758 59.8499 109.881 59.007 111.13 58.2672C112.374 57.5305 113.745 56.8952 115.243 56.3569C116.736 55.8203 118.358 55.3794 120.109 55.0301C121.857 54.6816 123.734 54.424 125.744 54.2536C127.751 54.0834 129.891 54 132.166 54C133.22 54 134.238 54.0166 135.221 54.0502C136.205 54.0837 137.154 54.1342 138.07 54.2019C138.986 54.2697 139.868 54.3547 140.718 54.4573C141.568 54.56 142.386 54.6803 143.171 54.8186C143.957 54.957 144.711 55.1135 145.434 55.2883C146.157 55.4633 146.849 55.6567 147.511 55.869C148.173 56.0815 148.805 56.313 149.407 56.5637C150.01 56.8148 150.583 57.0852 151.127 57.3755C151.668 57.0852 152.239 56.8148 152.841 56.5637C153.441 56.313 154.071 56.0815 154.732 55.869C155.392 55.6567 156.083 55.4633 156.806 55.2883C157.527 55.1135 158.28 54.957 159.065 54.8186C159.849 54.6803 160.666 54.56 161.515 54.4573C162.364 54.3547 163.246 54.2697 164.162 54.2019C165.077 54.1342 166.026 54.0837 167.01 54.0502C167.993 54.0166 169.011 54 170.064 54C172.339 54 174.48 54.0834 176.488 54.2536C178.499 54.424 180.378 54.6816 182.128 55.0301C183.881 55.3794 185.506 55.8203 187.003 56.3569C188.505 56.8952 189.88 57.5305 191.129 58.2672C192.383 59.007 193.511 59.8499 194.514 60.801C195.521 61.7573 196.403 62.824 197.159 64.0066C197.919 65.1972 198.553 66.5069 199.059 67.9418C199.569 69.3883 199.95 70.9641 200.2 72.6761L207.72 126.77H189.042L183.754 70.5463C183.697 69.9467 183.585 69.377 183.416 68.8391C183.247 68.3028 183.02 67.7981 182.733 67.327C182.447 66.8571 182.101 66.4205 181.693 66.0192C181.286 65.6188 180.816 65.2534 180.281 64.9252C179.747 64.5975 179.149 64.3067 178.482 64.0549C177.817 63.8034 177.083 63.5907 176.279 63.4189C175.476 63.2472 174.602 63.1163 173.654 63.0283C172.707 62.9403 171.685 62.8952 170.586 62.8952C169.61 62.8952 168.701 62.9403 167.855 63.0283C167.01 63.1163 166.228 63.2472 165.51 63.4189C164.792 63.5907 164.137 63.8034 163.544 64.0549C162.95 64.3067 162.418 64.5975 161.949 64.9252C161.478 65.2534 161.069 65.6188 160.721 66.0192C160.373 66.4205 160.085 66.8571 159.859 67.327C159.632 67.7981 159.466 68.3028 159.36 68.8391C159.254 69.377 159.209 69.9467 159.224 70.5463L159.597 83.2609H142.83L143.117 70.5463C143.129 69.9467 143.08 69.377 142.97 68.8391C142.861 68.3028 142.691 67.7981 142.461 67.327C142.231 66.8571 141.941 66.4205 141.59 66.0192C141.239 65.6188 140.828 65.2534 140.355 64.9252C139.883 64.5975 139.35 64.3067 138.754 64.0549C138.16 63.8034 137.503 63.5907 136.783 63.4189C136.064 63.2472 135.282 63.1163 134.436 63.0283C133.59 62.9403 132.68 62.8952 131.704 62.8952C130.605 62.8952 129.584 62.9403 128.637 63.0283C127.69 63.1163 126.816 63.2472 126.014 63.4189C125.212 63.5907 124.48 63.8034 123.816 64.0549C123.151 64.3067 122.554 64.5975 122.023 64.9252C121.49 65.2534 121.023 65.6188 120.618 66.0192C120.213 66.4205 119.87 66.8571 119.587 67.327C119.303 67.7981 119.08 68.3028 118.914 68.8391C118.749 69.377 118.641 69.9467 118.588 70.5463L113.678 126.77Z" fill="white"></path>
<ellipse opacity="0.5" cx="149.5" cy="96.5" rx="128.5" ry="86.5" stroke="white" stroke-width="4"></ellipse>
</svg>