<svg width="68" height="86" viewBox="0 0 68 86" fill="none" xmlns="http://www.w3.org/2000/svg">
<path opacity="0.9" d="M0.0703125 79.3915L1.25158 66.1627L33.9473 40.4876C34.922 39.6919 35.836 38.9379 36.6887 38.217C37.5373 37.4996 38.3256 36.8147 39.0528 36.1539C39.7768 35.4961 40.4406 34.8621 41.0431 34.2437C41.6431 33.6279 42.1826 33.0276 42.6606 32.4349C43.1366 31.8445 43.5515 31.2617 43.9044 30.6786C44.2559 30.0978 44.5457 29.5169 44.7729 28.9283C44.9991 28.342 45.163 27.7483 45.2635 27.1397C45.3637 26.5336 45.4009 25.913 45.3742 25.2707C45.3444 24.5536 45.2332 23.8739 45.0476 23.2339C44.8629 22.5967 44.6045 21.9985 44.2793 21.4415C43.9554 20.8866 43.565 20.3723 43.115 19.9008C42.6665 19.4308 42.1584 19.0031 41.5973 18.6199C41.0377 18.2377 40.425 17.8995 39.7656 17.6076C39.1076 17.3164 38.4026 17.0711 37.6568 16.8741C36.912 16.6775 36.126 16.5288 35.3049 16.4307C34.4844 16.3326 33.6281 16.2849 32.742 16.2901C31.8359 16.2849 30.9685 16.3365 30.1437 16.4423C29.3183 16.5481 28.535 16.7083 27.7979 16.9201C27.0596 17.1322 26.3671 17.3964 25.7248 17.7101C25.081 18.0245 24.4871 18.3888 23.9476 18.8007C23.4065 19.2138 22.9197 19.675 22.4919 20.1818C22.0626 20.6906 21.6925 21.2457 21.3864 21.8448C21.079 22.4464 20.836 23.0928 20.6625 23.7817C20.4881 24.4739 20.3838 25.2094 20.3548 25.9858H4.57493C4.72809 24.4095 5.05242 22.9204 5.53251 21.5228C6.00787 20.1388 6.63648 18.8429 7.40398 17.6393C8.16487 16.446 9.0632 15.342 10.0856 14.3315C11.1004 13.3284 12.2388 12.4162 13.4882 11.5994C14.7302 10.7875 16.0835 10.0687 17.5364 9.44774C18.9827 8.82965 20.5297 8.30761 22.1666 7.88659C23.7984 7.4669 25.5219 7.14696 27.3269 6.93209C29.129 6.71756 31.0151 6.60742 32.9758 6.60742C34.9686 6.60742 36.8792 6.71512 38.6994 6.92294C40.5224 7.13108 42.2575 7.43997 43.8957 7.84239C45.5389 8.24602 47.0869 8.74433 48.53 9.33036C49.9794 9.91897 51.325 10.5968 52.5561 11.3572C53.7942 12.1218 54.9181 12.9708 55.9165 13.8974C56.9217 14.8304 57.8009 15.843 58.5418 16.9286C59.2886 18.0228 59.8958 19.1923 60.3504 20.4301C60.8091 21.6789 61.1128 22.9986 61.2479 24.3818C61.3374 25.2986 61.3564 26.2002 61.2908 27.1009C61.2247 28.0074 61.0728 28.9129 60.8208 29.8322C60.5671 30.7574 60.2118 31.6968 59.7401 32.6656C59.2653 33.6409 58.6722 34.6464 57.9456 35.6981C57.2137 36.7574 56.3458 37.8642 55.3257 39.0352C54.2974 40.2156 53.1137 41.4622 51.757 42.7928C50.3882 44.1352 48.842 45.5645 47.0995 47.0997C45.3392 48.6504 43.3764 50.3112 41.1899 52.1025L27.7272 63.9618L27.719 64.4226H66.4098L67.9294 79.3915H0.0703125Z" fill="white"></path>
</svg>