<svg width="68" height="86" viewBox="0 0 68 86" fill="none" xmlns="http://www.w3.org/2000/svg">
<path opacity="0.9" d="M33.5142 79.3915C31.0415 79.3915 28.6546 79.2159 26.374 78.8784C24.0979 78.5416 21.932 78.0441 19.8956 77.4002C17.8669 76.7589 15.9702 75.9734 14.2233 75.0585C12.4859 74.1487 10.8994 73.1123 9.48021 71.9643C8.0708 70.8243 6.82837 69.5757 5.76797 68.2333C4.71618 66.9019 3.84474 65.4798 3.16744 63.9815C2.49635 62.497 2.01654 60.9391 1.74069 59.3218C1.46762 57.7207 1.39466 56.0627 1.53357 54.3609H19.2466C19.2633 55.1278 19.373 55.8686 19.5677 56.5781C19.7633 57.2908 20.0446 57.9716 20.4036 58.6154C20.764 59.2617 21.2026 59.8705 21.7109 60.4362C22.221 61.004 22.8011 61.5281 23.4425 62.0034C24.0858 62.4801 24.7905 62.9073 25.5477 63.2796C26.3066 63.6528 27.1177 63.9708 27.9719 64.228C28.8275 64.4857 29.7257 64.6824 30.6572 64.813C31.5894 64.9436 32.5542 65.0078 33.542 65.0006C34.718 65.0078 35.8514 64.9183 36.9333 64.7391C38.0141 64.5602 39.0422 64.292 40.0094 63.942C40.9744 63.5928 41.8776 63.1624 42.7109 62.6585C43.5416 62.1562 44.302 61.5813 44.9843 60.9413C45.664 60.3039 46.2656 59.6025 46.7819 58.8448C47.2957 58.0907 47.7245 57.2813 48.0613 56.4241C48.3963 55.5715 48.6401 54.6723 48.7859 53.7336C48.9308 52.8006 48.9789 51.8292 48.9237 50.8266C48.8829 49.8107 48.7417 48.8398 48.5091 47.9191C48.2779 47.0039 47.9563 46.1378 47.5528 45.3258C47.1515 44.5182 46.6689 43.7636 46.1133 43.0671C45.5603 42.3738 44.9345 41.7375 44.2439 41.1633C43.5559 40.5913 42.8031 40.0804 41.9929 39.6357C41.1852 39.1924 40.3198 38.8144 39.4041 38.507C38.4903 38.2003 37.5254 37.9635 36.5166 37.802C35.5089 37.6406 34.4563 37.5542 33.3655 37.5481C32.5833 37.5481 31.8304 37.5792 31.1067 37.6413C30.3827 37.7034 29.6875 37.7966 29.021 37.9208C28.3539 38.0451 27.7153 38.2005 27.1049 38.387C26.4938 38.5738 25.9108 38.7919 25.3557 39.0413C24.7997 39.2911 24.2716 39.5724 23.7712 39.8854C23.2698 40.199 22.796 40.5445 22.3499 40.922C21.9026 41.3004 21.4829 41.7112 21.0907 42.1544C20.6974 42.599 20.3316 43.0764 19.9934 43.5869H4.06025L11.7469 6.60742H57.6201L58.496 16.5412H24.1398L21.2901 32.775H21.968C22.3591 32.3588 22.7987 31.9576 23.2821 31.5744C23.7643 31.1923 24.2902 30.828 24.8554 30.4845C25.4192 30.1418 26.0221 29.8196 26.6598 29.521C27.2962 29.223 27.9673 28.9483 28.6689 28.6998C29.3693 28.4517 30.1003 28.2296 30.8575 28.0365C31.6138 27.8436 32.3966 27.6795 33.2018 27.5471C34.0063 27.4148 34.8335 27.3141 35.6794 27.2479C36.5248 27.1817 37.3893 27.1499 38.2688 27.1556C40.1108 27.1499 41.8976 27.2855 43.6175 27.552C45.3405 27.819 46.9994 28.2179 48.5816 28.739C50.1695 29.262 51.6828 29.909 53.1079 30.6707C54.5405 31.4364 55.8864 32.3193 57.1309 33.3102C58.3838 34.3078 59.536 35.4165 60.5717 36.6273C61.616 37.848 62.5435 39.1742 63.3375 40.5967C64.1392 42.0328 64.8058 43.569 65.3198 45.1959C65.8393 46.8404 66.2034 48.5795 66.3932 50.4036C66.5956 52.3496 66.5829 54.2493 66.3637 56.0869C66.142 57.9463 65.7091 59.7404 65.0749 61.4529C64.4338 63.1839 63.5877 64.8295 62.5475 66.3725C61.4974 67.9303 60.2509 69.3813 58.8204 70.7081C57.3784 72.0455 55.7517 73.2545 53.9544 74.317C52.1455 75.3863 50.1671 76.3053 48.0349 77.0564C45.8932 77.8108 43.6006 78.3941 41.1748 78.7893C38.7433 79.1854 36.1834 79.3915 33.5142 79.3915Z" fill="white"></path>
</svg>